<?xml version="1.0" encoding="utf-8"?>
<!-- Generator: Adobe Illustrator 25.2.3, SVG Export Plug-In . SVG Version: 6.00 Build 0)  -->
<svg version="1.1" id="Слой_1" xmlns="http://www.w3.org/2000/svg" xmlns:xlink="http://www.w3.org/1999/xlink" x="0px" y="0px"
	 viewBox="0 0 674 130" style="enable-background:new 0 0 674 130;" xml:space="preserve">
<style type="text/css">
	.st0{fill:#FFFFFF;}
	.st1{fill-rule:evenodd;clip-rule:evenodd;fill:#FFFFFF;}
	.st2{fill:#DE4545;}
</style>
<path class="st0" d="M330.8,34.3h-18.3l-19.1,67.8h23.1l17.8-63.2C335.2,35.9,334,34.3,330.8,34.3z"/>
<path class="st0" d="M343.5,10.8c2-7.2-1.2-10.8-9.7-10.8c-4.1,0-7.5,0.9-10.2,2.8c-2.7,1.9-4.6,4.5-5.6,8.1l-0.9,3.2
	c-1,3.4-0.6,6.1,1.1,8.1c1.8,1.9,4.7,2.8,8.6,2.8c4.1,0,7.5-0.9,10.2-2.8c2.8-1.9,4.6-4.6,5.6-8.1L343.5,10.8z"/>
<path class="st0" d="M288.4,7.2h18.3c3.2,0,4.4,1.5,3.5,4.6l-25.4,90.4h-23.1L288.4,7.2z"/>
<path class="st1" d="M185.1,103.8c-5.4,0-9.1-1.9-11.2-5.7c-2-3.8-2-9.4,0-16.7l0.9-3.2c1.9-6.8,5.3-11.9,10.1-15.4
	c5-3.6,11-5.4,18.2-5.4c2.3,0,5,0.3,8,0.8l0.6-2.1c0.4-1.4,0.2-2.4-0.6-2.9c-0.8-0.6-2.7-0.8-5.6-0.8c-2.3,0-7,0.6-14,1.8
	c-3.7,0.6-5-0.7-4.1-4l4.1-14.7c10.4-1.9,18.2-2.8,23.6-2.8c10.2,0,16.6,1.8,19.2,5.4c2.7,3.6,2.5,10.7-0.5,21.3l-12,42.8h-16.4
	c-3.2,0-4.4-1.5-3.5-4.6l0.7-2.5C197,100.9,191.1,103.8,185.1,103.8z M197.5,79.1c-0.9,3.1-0.4,4.6,1.5,4.6c1.8,0,3.9-1.3,6.3-3.9
	l1.8-6.4c-1.2-0.3-2.3-0.4-3.4-0.4c-3,0-5,1.8-6,5.4L197.5,79.1z"/>
<path class="st0" d="M148.4,103.8c-9.1,0-15-2-17.6-6c-2.7-4-2.6-10.9,0.2-20.9l6.4-22.9h-7.5l4.3-15.2c0.9-3.1,2.9-4.6,6.1-4.6
	h41.6l-4.3,15.2c-0.9,3.1-2.9,4.6-6.1,4.6h-10.9L154,77.4c-0.7,2.4-0.7,4.1-0.1,5c0.6,0.9,2.1,1.4,4.4,1.4c2,0,4.3-0.3,6.9-0.8
	c1.7-0.4,2.8-0.1,3.6,0.7c0.8,0.7,0.9,1.9,0.5,3.5l-4,14.6C160.3,103.1,154.6,103.8,148.4,103.8z"/>
<path class="st0" d="M267.4,34.3h-18.3L230,102.2h23.1l17.8-63.2C271.7,35.9,270.5,34.3,267.4,34.3z"/>
<path class="st0" d="M382.9,32.7c11,0,14.3,8,9.8,24l-12.8,45.5h-18.4c-3.2,0-4.4-1.5-3.5-4.6l11-39.1c0.6-2,0.8-3.4,0.6-4
	c-0.2-0.7-0.8-1.1-1.7-1.1c-1.7,0-4.1,1.4-7,4.2l-11.3,40c-0.9,3.1-2.9,4.6-6.1,4.6h-18.3l19.1-67.8h16.2c3.2,0,4.4,1.5,3.5,4.6
	l-1.1,3.8C369.4,36,376,32.7,382.9,32.7z"/>
<path class="st1" d="M444.4,34.5c-3.6-1.2-7.2-1.8-10.7-1.8c-8.6,0-15.8,2.1-21.6,6.3c-5.8,4.2-9.7,9.9-11.8,17.1l-0.7,2.5
	c-2.2,7.8-1.9,13.6,0.9,17.5c-6,2.7-9.7,6.6-11.1,11.7l-0.6,2.2c-2.6,9.2,1.6,14.1,12.5,14.7l17.5,1.1c1.6,0.1,2.3,0.7,1.9,1.9
	l-0.1,0.3c-0.3,1.2-1.1,1.9-2.4,2.2c-1.2,0.4-4.5,0.6-9.9,0.6c-4.4,0-9.8-0.6-16.3-1.8c-3.1-0.7-5.2,0.6-6.3,3.9l-4.5,13.9
	c8.6,1.9,16.5,2.8,23.9,2.8c12.4,0,21.3-1.6,26.7-4.7c5.4-3.1,9.1-8,11-14.9l1.4-5.1c1.5-5.3,1-9.5-1.4-12.5
	c-2.3-3.1-6.3-4.8-11.9-5.1l-15.5-1c-1.3-0.1-1.8-0.6-1.6-1.7l0.1-0.3c0.2-0.8,0.8-1.5,1.6-2.1c0.7,0.1,2,0.1,3.7,0.1
	c8.8,0,16.1-1.9,22-5.6c6-3.8,9.8-8.6,11.4-14.3l0.4-1.4c0.8-3,1.1-5.7,0.9-8.2l5.1,0.3c3.2,0.2,5.3-1.3,6.2-4.4l4.1-14.5
	L444.4,34.5z M423.5,55.7c0.7-2.5,2.4-3.8,5-3.8c1.4,0,2.5,0.1,3.4,0.4c0.2,0.9,0,2.6-0.7,5l-0.7,2.5c-0.8,2.7-2.7,4-5.9,4
	c-1.3,0-2-0.3-2.4-0.8c-0.3-0.6-0.2-1.8,0.2-3.3L423.5,55.7z"/>
<path class="st1" d="M50.4,103.2L77.1,8.3H58.8c-3.2,0-5.2,1.5-6.1,4.6l-7.2,25.7c-3.1-3.2-7-4.9-11.7-4.9c-5.8,0-10.9,2.1-15.4,6.3
	C14,44,10.6,50.1,8.3,58.3L1.8,81.5c-4.4,15.6-0.7,23.4,11,23.4c5.6,0,11.8-3.2,18.7-9.6l-0.9,3.3c-0.9,3.1,0.3,4.6,3.5,4.6H50.4z
	 M33.2,55.4c0.8-0.8,1.9-1.3,3.1-1.3c1.5,0,3,0.6,4.2,1.9l-6.6,23.6c-2.8,3.2-5.2,4.7-7.3,4.7c-0.9,0-1.4-0.3-1.6-1
	c-0.2-0.6,0-1.9,0.5-3.9L31,60.2C31.6,57.8,32.4,56.2,33.2,55.4z"/>
<path class="st1" d="M65.5,98.2c3.1,4.4,9.8,6.7,20.2,6.7c6.9,0,15.2-1,24.9-2.9l3.7-14.6c0.7-3.2-0.7-4.5-4.1-4
	c-5.6,0.8-10.8,1.3-15.6,1.3c-3.4,0-5.6-0.4-6.6-1.3c-1-0.9-1.2-2.5-0.6-4.7l0.3-1.1h26.1c1.5,0,2.9-0.4,4.1-1.3
	c1.2-0.9,2.1-2.2,2.5-3.8l3.4-12.2c2.4-8.7,1.9-15.3-1.6-19.7c-3.5-4.5-9.5-6.8-18.2-6.8c-18,0-29.5,8.9-34.4,26.6l-4.3,15.2
	C62.4,86.1,62.4,93.7,65.5,98.2z M100.7,61.9h-8.6l1.2-4.2c0.9-3.1,2.7-4.6,5.5-4.6c2.9,0,3.9,1.7,2.9,5L100.7,61.9z"/>
<path class="st2" d="M503.1,33c5,0,11,0.7,17.8,2.2l-4.2,14.6c-0.4,1.6-1.3,2.7-2.4,3.5c-1.1,0.7-2.4,1-4,0.7c-3.5-0.7-6.3-1-8.4-1
	c-3.6,0-6.2,0.7-7.9,2c-1.6,1.3-3,3.8-4,7.5L486.4,75c-1,3.6-1,6.1,0,7.4c1,1.2,3.5,1.8,7.3,1.8c1.6,0,4.3-0.3,8.1-0.8
	c3.5-0.6,5,0.8,4.2,4l-3.8,15.1c-7.5,1.3-13.9,2-19.1,2c-18.7,0-25.5-9-20.5-26.9l4.9-17.6C472.6,42,484.4,33,503.1,33z"/>
<path class="st2" d="M527.8,34.7H546c3.2,0,4.4,1.5,3.5,4.6l-17.8,63.4h-23.1L527.8,34.7z"/>
<path class="st2" d="M568.8,104.4c-9.1,0-15-2-17.6-6c-2.7-4-2.6-11,0.2-20.9l6.4-23h-7.5l4.3-15.2c0.9-3.1,2.9-4.6,6.1-4.6h41.6
	L598,49.9c-0.9,3.1-2.9,4.6-6.1,4.6h-10.9l-6.6,23.4c-0.7,2.4-0.7,4.1-0.1,5c0.6,0.9,2.1,1.4,4.4,1.4c2,0,4.3-0.3,6.9-0.8
	c1.7-0.4,2.8-0.1,3.6,0.7c0.8,0.7,0.9,1.9,0.5,3.5l-4,14.6C580.8,103.7,575.1,104.4,568.8,104.4z"/>
<path class="st2" d="M674,34.7l-53.7,93.8h-16.8c-1.6,0-2.7-0.5-3.2-1.4c-0.4-0.9-0.2-2.2,0.6-3.8l11.9-20.6h-8.6l2-68h20.6
	c3,0,4.3,1.4,3.9,4.3l-6.3,46.9l23.8-47.1c1.3-2.7,3.5-4,6.4-4H674z"/>
</svg>
